<svg xmlns="http://www.w3.org/2000/svg" viewBox="0 0 54.92 63.57"><defs><style>.cls-1{fill:none;stroke:#000;stroke-linecap:round;stroke-linejoin:round;stroke-width:2px;}</style></defs><g id="Layer_2" data-name="Layer 2"><g id="Layer_2-2" data-name="Layer 2"><path class="cls-1" d="M40.41,16.56V28.09A14.44,14.44,0,0,1,26,42.49h0a14.44,14.44,0,0,1-14.4-14.4V16.56Z"/><line class="cls-1" x1="18.41" y1="25.14" x2="33.6" y2="25.14"/><line class="cls-1" x1="18.41" y1="31.32" x2="33.6" y2="31.32"/><path class="cls-1" d="M14.17,16.56V4.68A3.7,3.7,0,0,1,17.85,1h0a3.7,3.7,0,0,1,3.69,3.68V16.56"/><path class="cls-1" d="M30.47,16.56V4.68A3.7,3.7,0,0,1,34.15,1h0a3.7,3.7,0,0,1,3.69,3.68V16.56"/><path class="cls-1" d="M47.23,49.19H32.7a6.73,6.73,0,0,1-6.7-6.7h0"/><path class="cls-1" d="M47.23,49.19a6.71,6.71,0,0,1,6.69,6.69h0a6.71,6.71,0,0,1-6.69,6.69"/><line class="cls-1" x1="1" y1="62.57" x2="47.23" y2="62.57"/></g></g></svg>