<svg xmlns="http://www.w3.org/2000/svg" viewBox="0 0 53.02 53.02"><defs><style>.cls-1{fill-rule:evenodd;}</style></defs><g id="Layer_2" data-name="Layer 2"><g id="Layer_1-2" data-name="Layer 1"><path class="cls-1" d="M26.51,0A26.51,26.51,0,1,1,7.77,7.76,26.45,26.45,0,0,1,26.51,0Zm8.41,30.74a5.3,5.3,0,0,0-1.62-4.06,11.73,11.73,0,0,0-5.19-2.43v-6a10.75,10.75,0,0,1,4.27,2l1.75-2.95a13.25,13.25,0,0,0-2.74-1.57A12.2,12.2,0,0,0,28.23,15V13.08H25.5V14.9a9.65,9.65,0,0,0-2.68.59,7,7,0,0,0-2.08,1.26,5.23,5.23,0,0,0-1.35,1.85,5.6,5.6,0,0,0-.47,2.32,6.31,6.31,0,0,0,.4,2.34,5,5,0,0,0,1.24,1.79,7.65,7.65,0,0,0,2.09,1.33,18.44,18.44,0,0,0,3,1v6.14a9.49,9.49,0,0,1-2.86-.92,15.73,15.73,0,0,1-2.66-1.77l-2,2.85a14.24,14.24,0,0,0,3.47,2.07,14.42,14.42,0,0,0,3.93,1v3.13h2.73v-3.1A9.43,9.43,0,0,0,31,36.22,7,7,0,0,0,33.06,35a5.51,5.51,0,0,0,1.37-1.85,5.73,5.73,0,0,0,.49-2.36Zm-9.29-7.15V18.07a3.52,3.52,0,0,0-2.26.86,2.39,2.39,0,0,0-.75,1.77,2.44,2.44,0,0,0,.6,1.68,5.3,5.3,0,0,0,2.41,1.21ZM31.21,31a2.93,2.93,0,0,0-.14-1,2,2,0,0,0-.5-.78,3.67,3.67,0,0,0-1-.66,10.07,10.07,0,0,0-1.5-.58v5.68a3.8,3.8,0,0,0,2.3-.85,2.36,2.36,0,0,0,.8-1.85ZM26.51,5.22a21.29,21.29,0,1,0,15.05,6.24,21.22,21.22,0,0,0-15-6.24Zm12.94,8.34a18.29,18.29,0,1,0,5.37,13,18.24,18.24,0,0,0-5.37-12.95Zm3.7-3.69A23.54,23.54,0,1,0,50,26.51,23.46,23.46,0,0,0,43.15,9.87Z"/></g></g></svg>