<svg id="Layer_1" data-name="Layer 1" xmlns="http://www.w3.org/2000/svg" xmlns:xlink="http://www.w3.org/1999/xlink" viewBox="0 0 1207.94 115.3"><defs><style>.cls-1{fill:#1a1a1a;}.cls-1,.cls-2,.cls-3{fill-rule:evenodd;}.cls-2{fill:url(#linear-gradient);}.cls-3{fill:url(#linear-gradient-2);}.cls-4,.cls-5{isolation:isolate;}.cls-5{font-size:100.58px;fill:#e4cd8b;stroke:#666464;stroke-miterlimit:10;font-family:Algerian;}</style><linearGradient id="linear-gradient" x1="221.25" y1="37.6" x2="126.47" y2="-28.77" gradientTransform="matrix(1, 0, 0, -1, -88.56, 54.22)" gradientUnits="userSpaceOnUse"><stop offset="0" stop-color="#70512a"/><stop offset="0.48" stop-color="#ebda98"/><stop offset="1" stop-color="#6a4c26"/></linearGradient><linearGradient id="linear-gradient-2" x1="196.31" y1="273.63" x2="-142.08" y2="-192.12" gradientTransform="matrix(1, 0, 0, -1, 0, 107)" gradientUnits="userSpaceOnUse"><stop offset="0" stop-color="#262525"/><stop offset="0.48" stop-color="#929497"/><stop offset="1" stop-color="#262525"/></linearGradient></defs><g id="Layer_1-2" data-name="Layer 1"><polygon class="cls-1" points="105.04 29.14 105.04 43.71 105.04 105.04 94.22 105.04 94.22 53.46 94.22 38.89 94.22 24.32 60.61 54.58 52.52 61.86 44.43 54.58 16.18 29.14 32.37 29.14 52.52 47.29 94.22 9.75 105.04 0 105.04 14.57 105.04 29.14"/><polygon class="cls-1" points="105.04 29.14 105.04 43.71 105.04 105.04 94.22 105.04 94.22 53.46 94.22 38.89 94.22 24.32 60.61 54.58 52.52 61.86 44.43 54.58 16.18 29.14 32.37 29.14 52.52 47.29 94.22 9.75 105.04 0 105.04 14.57 105.04 29.14"/><path class="cls-2" d="M105,105H94.21V24.32L52.52,61.86,16.19,29.14H32.38L52.52,47.29,105,0Z"/><polygon class="cls-3" points="52.52 91 44.43 83.72 10.83 53.46 10.83 105.04 0 105.04 0 43.71 0 29.14 52.52 76.43 83.39 48.64 83.39 63.21 60.61 83.72 52.52 91"/><text class="cls-4"/><text class="cls-5" transform="translate(126.25 88.72)">The Mystery Market</text></g></svg>